<!--?xml version="1.0" encoding="utf-8"?-->
<!-- Generator: Adobe Illustrator 22.1.0, SVG Export Plug-In . SVG Version: 6.00 Build 0)  -->
<svg version="1.1" id="_x39_" xmlns="http://www.w3.org/2000/svg" xmlns:xlink="http://www.w3.org/1999/xlink" x="0px" y="0px" viewBox="0 0 612.507 800" style="enable-background:new 0 0 612.507 800;" xml:space="preserve">
<style type="text/css">
	.st0{fill:#6CC5D5;}
	.st1{fill:#FFFFFF;}
</style>
<g>
	<path class="st0" d="M517,263C457.025,183.559,381.608,91.544,358.127,49c-25.93-47-35.662-47-51.871-47
		c-16.22,0-25.943,0-51.884,47C230.914,91.544,155.478,183.559,95.5,263C35.522,342.42-19.605,464.024,9.581,577.512
		C33.704,671.366,121.441,798,306.256,798c184.824,0,272.55-126.634,296.673-220.488C632.106,464.024,576.989,342.42,517,263z"></path>
	<path class="st1" d="M129.23,325.112c7.217,2.03,19.431,5.284,5.568,38.739c-25.56,61.583-30.042,150.153,33.318,185.638
		c74.57,41.76,150.197,45.965,148.431,109.579c-1.786,63.589-118.4,75.953-197.906,3.508
		c-71.125-64.797-88.349-155.503-54.788-240.311C92.858,348.992,116.866,321.563,129.23,325.112z"></path>
</g>
</svg>
